<svg width="705" height="503" viewBox="0 0 705 503" fill="none" xmlns="http://www.w3.org/2000/svg">
<path d="M84 16C84 7.16344 91.1634 0 100 0H689C697.837 0 705 7.16344 705 16V335C705 343.837 697.837 351 689 351H100C91.1634 351 84 343.837 84 335V16Z" fill="#455065"/>
<rect x="84" y="60" width="621" height="351" rx="16" fill="#556077"/>
<rect x="84" y="24" width="621" height="351" fill="#556077"/>
<rect x="106" y="49" width="579" height="338" rx="16" fill="#252A34"/>
<rect x="275" y="89" width="113" height="12" rx="6" fill="#556077"/>
<rect x="403" y="89" width="39" height="12" rx="6" fill="#556077"/>
<rect x="275" y="111" width="113" height="12" rx="6" fill="#556077"/>
<rect x="403" y="111" width="112" height="12" rx="6" fill="#556077"/>
<rect x="325" y="133" width="190" height="12" rx="6" fill="#556077"/>
<rect x="275" y="133" width="40" height="12" rx="6" fill="#556077"/>
<rect x="275" y="291" width="113" height="12" rx="6" fill="#556077"/>
<rect x="403" y="291" width="39" height="12" rx="6" fill="#556077"/>
<rect x="275" y="314" width="113" height="12" rx="6" fill="#556077"/>
<rect x="403" y="314" width="112" height="12" rx="6" fill="#556077"/>
<rect x="275" y="335" width="40" height="12" rx="6" fill="#556077"/>
<rect x="325" y="335" width="190" height="12" rx="6" fill="#556077"/>
<rect x="368.983" y="179.108" width="69.8546" height="15.6567" rx="7.82836" transform="rotate(134.843 368.983 179.108)" fill="#08D9D6"/>
<rect x="357.15" y="266.795" width="67.749" height="15.6567" rx="7.82836" transform="rotate(-134.534 357.15 266.795)" fill="#08D9D6"/>
<rect x="410.475" y="254.923" width="66.7574" height="15.6567" rx="7.82836" transform="rotate(-44.1278 410.475 254.923)" fill="#08D9D6"/>
<rect x="420.806" y="168.722" width="68.9861" height="15.6567" rx="7.82836" transform="rotate(46.4951 420.806 168.722)" fill="#08D9D6"/>
<rect y="161" width="261" height="342" rx="16" fill="#556077"/>
<rect x="15" y="179" width="231" height="286" rx="16" fill="#252A34"/>
<rect x="31" y="215" width="138" height="10" rx="5" fill="#556077"/>
<rect x="137" y="215" width="32" height="10" rx="5" fill="#556077"/>
<rect x="31" y="234" width="93" height="9" rx="4.5" fill="#556077"/>
<rect x="137" y="234" width="93" height="9" rx="4.5" fill="#556077"/>
<rect x="72" y="251" width="158" height="10" rx="5" fill="#556077"/>
<rect x="31" y="251" width="33" height="10" rx="5" fill="#556077"/>
<rect x="31" y="383" width="138" height="10" rx="5" fill="#556077"/>
<rect x="137" y="383" width="32" height="10" rx="5" fill="#556077"/>
<rect x="31" y="402" width="93" height="9" rx="4.5" fill="#556077"/>
<rect x="137" y="402" width="93" height="9" rx="4.5" fill="#556077"/>
<rect x="31" y="419" width="33" height="10" rx="5" fill="#556077"/>
<rect x="72" y="419" width="158" height="10" rx="5" fill="#556077"/>
<rect x="108.852" y="289.819" width="57.8948" height="12.9761" rx="6.48807" transform="rotate(134.843 108.852 289.819)" fill="#08D9D6"/>
<rect x="99.0449" y="362.493" width="56.1497" height="12.9761" rx="6.48807" transform="rotate(-134.534 99.0449 362.493)" fill="#08D9D6"/>
<rect x="143.24" y="352.654" width="55.3279" height="12.9761" rx="6.48807" transform="rotate(-44.1278 143.24 352.654)" fill="#08D9D6"/>
<rect x="151.802" y="281.211" width="57.175" height="12.9761" rx="6.48807" transform="rotate(46.4951 151.802 281.211)" fill="#08D9D6"/>
<ellipse cx="109.5" cy="13" rx="3.5" ry="4" fill="#252A34"/>
<ellipse cx="137.5" cy="13" rx="3.5" ry="4" fill="#252A34"/>
<ellipse cx="123.5" cy="13" rx="3.5" ry="4" fill="#252A34"/>
<circle cx="130.5" cy="484.5" r="8.5" fill="#252A34"/>
<rect x="539" y="230" width="141" height="273" rx="16" fill="#4A5468"/>
<rect x="543" y="235" width="132" height="264" rx="16" fill="#252A34"/>
<rect x="556" y="258" width="74" height="11" rx="5.5" fill="#556077"/>
<rect x="613" y="258" width="17" height="11" rx="5.5" fill="#556077"/>
<rect x="556" y="277" width="65" height="9" rx="4.5" fill="#556077"/>
<rect x="613" y="277" width="50" height="9" rx="4.5" fill="#556077"/>
<rect x="578" y="294" width="85" height="10" rx="5" fill="#556077"/>
<rect x="556" y="405" width="85" height="10" rx="5" fill="#556077"/>
<rect x="556" y="294" width="18" height="10" rx="5" fill="#556077"/>
<rect x="556" y="424" width="50" height="9" rx="4.5" fill="#556077"/>
<rect x="613" y="424" width="17" height="9" rx="4.5" fill="#556077"/>
<rect x="556" y="442" width="50" height="9" rx="4.5" fill="#556077"/>
<rect x="613" y="442" width="50" height="9" rx="4.5" fill="#556077"/>
<rect x="556" y="459" width="18" height="10" rx="5" fill="#556077"/>
<rect x="578" y="459" width="85" height="10" rx="5" fill="#556077"/>
<rect x="598.46" y="328.486" width="41.038" height="9.19798" rx="4.59899" transform="rotate(134.843 598.46 328.486)" fill="#08D9D6"/>
<rect x="591.509" y="380" width="39.801" height="9.19798" rx="4.59899" transform="rotate(-134.534 591.509 380)" fill="#08D9D6"/>
<rect x="622.836" y="373.026" width="39.2185" height="9.19798" rx="4.59899" transform="rotate(-44.1278 622.836 373.026)" fill="#08D9D6"/>
<rect x="628.906" y="322.384" width="40.5278" height="9.19798" rx="4.59899" transform="rotate(46.4951 628.906 322.384)" fill="#08D9D6"/>
</svg>
